G04*
G04 #@! TF.GenerationSoftware,Altium Limited,Altium Designer,23.10.1 (27)*
G04*
G04 Layer_Color=32768*
%FSLAX25Y25*%
%MOIN*%
G70*
G04*
G04 #@! TF.SameCoordinates,5FF5A223-D15A-4C9D-8392-CC208A2D619A*
G04*
G04*
G04 #@! TF.FilePolarity,Positive*
G04*
G01*
G75*
%ADD11C,0.00787*%
%ADD41C,0.00394*%
%ADD42C,0.00197*%
D11*
X58402Y83622D02*
X83598D01*
Y136378D01*
X58402D02*
X83598D01*
X58402Y83622D02*
Y136378D01*
X90039Y25185D02*
Y35815D01*
X44961D02*
X90039D01*
X44961Y25185D02*
Y35815D01*
Y25185D02*
X90039D01*
X335134Y10126D02*
X551866D01*
X335134D02*
Y130874D01*
X551866D01*
Y10126D02*
Y130874D01*
X158693Y15083D02*
Y33587D01*
X95307D02*
X158693D01*
X95307Y15083D02*
Y33587D01*
Y15083D02*
X158693D01*
X226677Y24185D02*
Y34815D01*
X211323D02*
X226677D01*
X211323Y24185D02*
Y34815D01*
Y24185D02*
X226677D01*
X103677Y78685D02*
Y89315D01*
X88323D02*
X103677D01*
X88323Y78685D02*
Y89315D01*
Y78685D02*
X103677D01*
D41*
X268032Y110000D02*
X271969D01*
X270000Y108031D02*
Y111969D01*
X183531Y69000D02*
X187469D01*
X185500Y67032D02*
Y70969D01*
X311000Y99032D02*
Y102969D01*
X309032Y101000D02*
X312968D01*
D42*
X145500Y141213D02*
Y145150D01*
X143532Y143181D02*
X147468D01*
X156957Y130681D02*
Y155681D01*
X134043D02*
X156957D01*
X134043Y130681D02*
Y155681D01*
Y130681D02*
X156957D01*
X290000Y41532D02*
Y45469D01*
X288032Y43500D02*
X291968D01*
X278543Y31000D02*
Y56000D01*
Y31000D02*
X301457D01*
Y56000D01*
X278543D02*
X301457D01*
X164043Y16319D02*
Y41319D01*
Y16319D02*
X196957D01*
Y41319D01*
X164043D02*
X196957D01*
X178532Y28819D02*
X182468D01*
X180500Y26850D02*
Y30787D01*
X188457Y101181D02*
Y126181D01*
X155543D02*
X188457D01*
X155543Y101181D02*
Y126181D01*
Y101181D02*
X188457D01*
X170031Y113681D02*
X173969D01*
X172000Y111713D02*
Y115650D01*
X205043Y92000D02*
Y117000D01*
Y92000D02*
X237957D01*
Y117000D01*
X205043D02*
X237957D01*
X219531Y104500D02*
X223468D01*
X221500Y102532D02*
Y106468D01*
X62543Y47319D02*
Y72319D01*
Y47319D02*
X95457D01*
Y72319D01*
X62543D02*
X95457D01*
X77031Y59819D02*
X80968D01*
X79000Y57850D02*
Y61787D01*
X329000Y147350D02*
Y151287D01*
X327031Y149319D02*
X330968D01*
X317543Y136819D02*
Y161819D01*
Y136819D02*
X340457D01*
Y161819D01*
X317543D02*
X340457D01*
X249921Y89921D02*
Y130079D01*
X290079D01*
X249921Y89921D02*
X290079D01*
Y130079D01*
M02*
