G04*
G04 #@! TF.GenerationSoftware,Altium Limited,Altium Designer,23.10.1 (27)*
G04*
G04 Layer_Color=16711935*
%FSLAX25Y25*%
%MOIN*%
G70*
G04*
G04 #@! TF.SameCoordinates,5FF5A223-D15A-4C9D-8392-CC208A2D619A*
G04*
G04*
G04 #@! TF.FilePolarity,Negative*
G04*
G01*
G75*
%ADD14C,0.06706*%
G04:AMPARAMS|DCode=15|XSize=67.06mil|YSize=67.06mil|CornerRadius=18.76mil|HoleSize=0mil|Usage=FLASHONLY|Rotation=180.000|XOffset=0mil|YOffset=0mil|HoleType=Round|Shape=RoundedRectangle|*
%AMROUNDEDRECTD15*
21,1,0.06706,0.02953,0,0,180.0*
21,1,0.02953,0.06706,0,0,180.0*
1,1,0.03753,-0.01476,0.01476*
1,1,0.03753,0.01476,0.01476*
1,1,0.03753,0.01476,-0.01476*
1,1,0.03753,-0.01476,-0.01476*
%
%ADD15ROUNDEDRECTD15*%
%ADD16C,0.07284*%
%ADD17R,0.07284X0.07284*%
%ADD18C,0.04921*%
%ADD19R,0.04921X0.04921*%
%ADD20C,0.09300*%
%ADD21C,0.06312*%
%ADD22R,0.06312X0.06312*%
%ADD23C,0.09016*%
%ADD24C,0.06165*%
%ADD25R,0.06165X0.06165*%
%ADD26R,0.06706X0.06706*%
%ADD27C,0.04724*%
%ADD28R,0.04724X0.04724*%
%ADD29C,0.07493*%
%ADD30R,0.07493X0.07493*%
D14*
X150500Y142000D02*
D03*
X285000Y44681D02*
D03*
X170500Y30000D02*
D03*
X180500D02*
D03*
X182000Y112500D02*
D03*
X172000D02*
D03*
X211500Y105681D02*
D03*
X221500D02*
D03*
X69000Y61000D02*
D03*
X79000D02*
D03*
X324000Y150500D02*
D03*
X250500Y84000D02*
D03*
X240500D02*
D03*
X230500D02*
D03*
X220500D02*
D03*
X210500D02*
D03*
X200500D02*
D03*
X190500D02*
D03*
X180500D02*
D03*
X170500D02*
D03*
X160500D02*
D03*
X150500D02*
D03*
X140500D02*
D03*
X130500D02*
D03*
X120500D02*
D03*
X250500Y54000D02*
D03*
X240500D02*
D03*
X230500D02*
D03*
X220500D02*
D03*
X210500D02*
D03*
X200500D02*
D03*
X190500D02*
D03*
X180500D02*
D03*
X170500D02*
D03*
X160500D02*
D03*
X150500D02*
D03*
X140500D02*
D03*
X130500D02*
D03*
D15*
X140500Y142000D02*
D03*
X295000Y44681D02*
D03*
X190500Y30000D02*
D03*
X162000Y112500D02*
D03*
X231500Y105681D02*
D03*
X89000Y61000D02*
D03*
X334000Y150500D02*
D03*
D16*
X69819Y90315D02*
D03*
Y100157D02*
D03*
Y110000D02*
D03*
Y119843D02*
D03*
D17*
Y129685D02*
D03*
D18*
X47815Y30500D02*
D03*
D19*
X87185D02*
D03*
D20*
X565000Y16000D02*
D03*
X564500Y160500D02*
D03*
X9000Y14500D02*
D03*
Y160000D02*
D03*
D21*
X270000Y100157D02*
D03*
D22*
Y119843D02*
D03*
D23*
X444000Y114500D02*
D03*
X497100Y26500D02*
D03*
X390900D02*
D03*
D24*
X345300Y95200D02*
D03*
D25*
Y45200D02*
D03*
D26*
X120500Y54000D02*
D03*
D27*
X150622Y26500D02*
D03*
X142748D02*
D03*
X134874D02*
D03*
X127000D02*
D03*
X119126D02*
D03*
X111252D02*
D03*
X214079Y29500D02*
D03*
X91079Y84000D02*
D03*
D28*
X103378Y26500D02*
D03*
X223921Y29500D02*
D03*
X100921Y84000D02*
D03*
D29*
X311000Y111000D02*
D03*
Y101000D02*
D03*
D30*
Y91000D02*
D03*
M02*
