M48
;Layer_Color=9474304
;FILE_FORMAT=2:4
INCH,TZ
;TYPE=PLATED
T01F00S00C0.0295
T02F00S00C0.0394
T03F00S00C0.0400
T04F00S00C0.0433
T05F00S00C0.0472
T06F00S00C0.0850
;TYPE=NON_PLATED
T07F00S00C0.0902
%
T01
X4781Y3050
X8719
T02
X17050Y3000
X18050
X19050
Y5400
X20050
X21050
X22050
X23050
X24050
X25050
Y8400
X24050
X23050
X22050
X21050
X20050
X19050
X18050
X17050
X17200Y11250
X18200
X21150Y10568
X22150
X23150
X27000Y10016
Y11984
X28500Y4468
X29500
X22392Y2950
X21408
X18050Y5400
X17050
X16050
X15050
X14050
X13050
X12050
X11913Y2650
X11125
X10338
X12700
X13487
X14275
X15062
X15050Y8400
X16050
X14050
X13050
X12050
X10092
X9108
X8900Y6100
X7900
X6900
X16200Y11250
X15050Y14200
X14050
X32400Y15050
X33400
T03
X34530Y4520
Y9520
T04
X31100Y9100
Y10100
Y11100
T05
X6982Y9032
Y10016
Y11000
Y11984
Y12968
T06
X56500Y1600
X900Y1450
Y16000
X56450Y16050
T07
X49710Y2650
X39090
X44400Y11450
M30
