G04*
G04 #@! TF.GenerationSoftware,Altium Limited,Altium Designer,23.10.1 (27)*
G04*
G04 Layer_Color=65535*
%FSLAX25Y25*%
%MOIN*%
G70*
G04*
G04 #@! TF.SameCoordinates,5FF5A223-D15A-4C9D-8392-CC208A2D619A*
G04*
G04*
G04 #@! TF.FilePolarity,Positive*
G04*
G01*
G75*
%ADD10C,0.00984*%
%ADD11C,0.00787*%
%ADD12C,0.02362*%
%ADD13C,0.01000*%
D10*
X140992Y156567D02*
X140254Y156993D01*
Y156141D01*
X140992Y156567D01*
X295492Y30114D02*
X294754Y30540D01*
Y29688D01*
X295492Y30114D01*
X70311Y138347D02*
X69573Y138773D01*
Y137920D01*
X70311Y138347D01*
X190992Y15433D02*
X190254Y15859D01*
Y15007D01*
X190992Y15433D01*
X162492Y127067D02*
X161754Y127493D01*
Y126641D01*
X162492Y127067D01*
X231992Y91114D02*
X231254Y91540D01*
Y90688D01*
X231992Y91114D01*
X89492Y46433D02*
X88754Y46859D01*
Y46007D01*
X89492Y46433D01*
X334492Y135933D02*
X333754Y136359D01*
Y135507D01*
X334492Y135933D01*
X115874Y54000D02*
X115136Y54426D01*
Y53574D01*
X115874Y54000D01*
X94421Y26500D02*
X93683Y26926D01*
Y26074D01*
X94421Y26500D01*
X315823Y83087D02*
X315085Y83513D01*
Y82660D01*
X315823Y83087D01*
D11*
X289685Y110000D02*
X289660Y110997D01*
X289584Y111991D01*
X289458Y112980D01*
X289282Y113962D01*
X289057Y114934D01*
X288783Y115893D01*
X288460Y116836D01*
X288090Y117763D01*
X287674Y118669D01*
X287212Y119553D01*
X286706Y120412D01*
X286157Y121245D01*
X285567Y122049D01*
X284936Y122822D01*
X284268Y123562D01*
X283563Y124267D01*
X282823Y124936D01*
X282050Y125566D01*
X281246Y126156D01*
X280413Y126705D01*
X279554Y127211D01*
X278670Y127673D01*
X277763Y128089D01*
X276837Y128459D01*
X275893Y128782D01*
X274934Y129056D01*
X273963Y129282D01*
X272981Y129458D01*
X271992Y129584D01*
X270997Y129659D01*
X270000Y129685D01*
X269003Y129659D01*
X268009Y129584D01*
X267019Y129458D01*
X266038Y129282D01*
X265066Y129056D01*
X264107Y128782D01*
X263164Y128459D01*
X262237Y128089D01*
X261331Y127673D01*
X260447Y127211D01*
X259588Y126705D01*
X258755Y126156D01*
X257951Y125566D01*
X257178Y124936D01*
X256438Y124267D01*
X255733Y123562D01*
X255064Y122822D01*
X254434Y122049D01*
X253843Y121245D01*
X253295Y120412D01*
X252789Y119553D01*
X252327Y118669D01*
X251911Y117763D01*
X251541Y116836D01*
X251218Y115893D01*
X250944Y114934D01*
X250718Y113962D01*
X250542Y112980D01*
X250416Y111991D01*
X250341Y110997D01*
X250315Y110000D01*
X250341Y109003D01*
X250416Y108008D01*
X250542Y107019D01*
X250718Y106037D01*
X250944Y105066D01*
X251218Y104107D01*
X251541Y103163D01*
X251911Y102237D01*
X252327Y101330D01*
X252789Y100446D01*
X253295Y99587D01*
X253844Y98754D01*
X254434Y97950D01*
X255064Y97177D01*
X255733Y96437D01*
X256438Y95732D01*
X257178Y95064D01*
X257951Y94433D01*
X258755Y93843D01*
X259588Y93294D01*
X260447Y92788D01*
X261331Y92326D01*
X262237Y91910D01*
X263164Y91540D01*
X264107Y91217D01*
X265066Y90943D01*
X266038Y90718D01*
X267020Y90542D01*
X268009Y90416D01*
X269003Y90340D01*
X270000Y90315D01*
X270997Y90340D01*
X271992Y90416D01*
X272981Y90542D01*
X273963Y90718D01*
X274935Y90943D01*
X275893Y91217D01*
X276837Y91540D01*
X277763Y91910D01*
X278670Y92326D01*
X279554Y92788D01*
X280413Y93294D01*
X281246Y93843D01*
X282050Y94433D01*
X282823Y95064D01*
X283563Y95732D01*
X284268Y96437D01*
X284936Y97177D01*
X285567Y97950D01*
X286157Y98754D01*
X286706Y99587D01*
X287212Y100447D01*
X287674Y101331D01*
X288090Y102237D01*
X288460Y103163D01*
X288783Y104107D01*
X289057Y105066D01*
X289282Y106037D01*
X289458Y107019D01*
X289584Y108008D01*
X289660Y109003D01*
X289685Y110000D01*
X115815Y66500D02*
X116772Y66690D01*
X117583Y67232D01*
X118125Y68043D01*
X118315Y69000D01*
X118125Y69957D01*
X117583Y70768D01*
X116772Y71310D01*
X115815Y71500D01*
X134831Y154894D02*
X156169D01*
X134831Y131468D02*
Y154894D01*
Y131468D02*
X156169D01*
Y154894D01*
X279331Y31787D02*
X300669D01*
Y55213D01*
X279331D02*
X300669D01*
X279331Y31787D02*
Y55213D01*
X58795Y84016D02*
X83205D01*
Y135984D01*
X58795D02*
X83205D01*
X58795Y84016D02*
Y135984D01*
X51850Y30500D02*
X54705D01*
X80295D02*
X83150D01*
X80295Y25579D02*
Y35421D01*
X54705D02*
X80295D01*
X54705Y25579D02*
Y35421D01*
Y25579D02*
X80295D01*
X164831Y17106D02*
X196169D01*
Y40532D01*
X164831D02*
X196169D01*
X164831Y17106D02*
Y40532D01*
X156331Y125394D02*
X187669D01*
X156331Y101969D02*
Y125394D01*
Y101969D02*
X187669D01*
Y125394D01*
X205831Y92787D02*
X237169D01*
Y116213D01*
X205831D02*
X237169D01*
X205831Y92787D02*
Y116213D01*
X63331Y48106D02*
X94669D01*
Y71531D01*
X63331D02*
X94669D01*
X63331Y48106D02*
Y71531D01*
X318331Y137606D02*
X339669D01*
Y161031D01*
X318331D02*
X339669D01*
X318331Y137606D02*
Y161031D01*
X268032Y133228D02*
X271969D01*
X270000Y131260D02*
Y135197D01*
X335528Y10520D02*
X551472D01*
X335528D02*
Y130480D01*
X551472D01*
Y10520D02*
Y130480D01*
X332279Y94516D02*
Y96484D01*
X331394Y95500D02*
X333362D01*
X331394Y45500D02*
X333362D01*
X255185Y58567D02*
Y79433D01*
X115815Y71500D02*
Y79433D01*
Y58567D02*
Y66500D01*
Y79433D02*
X255185D01*
X115815Y58567D02*
X255185D01*
X158299Y15476D02*
Y33193D01*
X95701D02*
X158299D01*
X95701Y15476D02*
Y33193D01*
Y15476D02*
X158299D01*
X301748Y80528D02*
Y121472D01*
X299780Y80528D02*
X317890D01*
Y80528D02*
Y121472D01*
X299780D02*
X317890D01*
X299780Y80528D02*
Y121472D01*
X226087Y24579D02*
Y25661D01*
Y33339D02*
Y34421D01*
X211913D02*
X226087D01*
X211913Y24579D02*
Y25661D01*
Y33339D02*
Y34421D01*
Y24579D02*
X226087D01*
X103087Y79079D02*
Y80161D01*
Y87839D02*
Y88921D01*
X88913D02*
X103087D01*
X88913Y79079D02*
Y80161D01*
Y87839D02*
Y88921D01*
Y79079D02*
X103087D01*
D12*
X120933Y62504D02*
X120488Y63427D01*
X119489Y63655D01*
X118688Y63016D01*
Y61992D01*
X119489Y61352D01*
X120488Y61580D01*
X120933Y62504D01*
D13*
X404001Y136000D02*
X404501Y135501D01*
X405500D01*
X406000Y136000D01*
Y138000D01*
X405500Y138499D01*
X404501D01*
X404001Y138000D01*
Y137500D01*
X404501Y137000D01*
X406000D01*
X407000Y138499D02*
Y136500D01*
X408000Y135501D01*
X408999Y136500D01*
Y138499D01*
X129508Y166180D02*
X127508D01*
X126509Y165181D01*
Y161182D01*
X127508Y160182D01*
X129508D01*
X130507Y161182D01*
Y165181D01*
X129508Y166180D01*
X132507Y160182D02*
X135506D01*
X136505Y161182D01*
X135506Y162181D01*
X133506D01*
X132507Y163181D01*
X133506Y164181D01*
X136505D01*
X142503D02*
X139504D01*
X138505Y163181D01*
Y161182D01*
X139504Y160182D01*
X142503D01*
X144503D02*
X146502D01*
X145502D01*
Y164181D01*
X144503D01*
X149501Y160182D02*
X151500D01*
X150501D01*
Y166180D01*
X149501D01*
X154499Y160182D02*
X156499D01*
X155499D01*
Y166180D01*
X154499D01*
X160498Y164181D02*
X162497D01*
X163497Y163181D01*
Y160182D01*
X160498D01*
X159498Y161182D01*
X160498Y162181D01*
X163497D01*
X166496Y165181D02*
Y164181D01*
X165496D01*
X167495D01*
X166496D01*
Y161182D01*
X167495Y160182D01*
X171494D02*
X173493D01*
X174493Y161182D01*
Y163181D01*
X173493Y164181D01*
X171494D01*
X170494Y163181D01*
Y161182D01*
X171494Y160182D01*
X176492Y164181D02*
Y160182D01*
Y162181D01*
X177492Y163181D01*
X178492Y164181D01*
X179491D01*
X44753Y78499D02*
X43753D01*
X44253D01*
Y76000D01*
X43753Y75500D01*
X43253D01*
X42753Y76000D01*
X46252Y75500D02*
X47252D01*
X47752Y76000D01*
Y77000D01*
X47252Y77500D01*
X46252D01*
X45753Y77000D01*
Y76000D01*
X46252Y75500D01*
X48752Y77500D02*
Y76000D01*
X49251Y75500D01*
X50751D01*
Y75001D01*
X50251Y74501D01*
X49751D01*
X50751Y75500D02*
Y77500D01*
X51751Y75500D02*
X53250D01*
X53750Y76000D01*
X53250Y76500D01*
X52250D01*
X51751Y77000D01*
X52250Y77500D01*
X53750D01*
X55249Y78000D02*
Y77500D01*
X54750D01*
X55749D01*
X55249D01*
Y76000D01*
X55749Y75500D01*
X57249D02*
X58249D01*
X57749D01*
Y77500D01*
X57249D01*
X61747D02*
X60248D01*
X59748Y77000D01*
Y76000D01*
X60248Y75500D01*
X61747D01*
X62747D02*
Y78499D01*
Y76500D02*
X64246Y77500D01*
X62747Y76500D02*
X64246Y75500D01*
X279450Y59050D02*
Y65048D01*
X282449D01*
X283449Y64048D01*
Y62049D01*
X282449Y61049D01*
X279450D01*
X286448Y59050D02*
X288447D01*
X289447Y60050D01*
Y62049D01*
X288447Y63049D01*
X286448D01*
X285448Y62049D01*
Y60050D01*
X286448Y59050D01*
X291446Y63049D02*
Y60050D01*
X292446Y59050D01*
X293445Y60050D01*
X294445Y59050D01*
X295445Y60050D01*
Y63049D01*
X300443Y59050D02*
X298444D01*
X297444Y60050D01*
Y62049D01*
X298444Y63049D01*
X300443D01*
X301443Y62049D01*
Y61049D01*
X297444D01*
X303442Y63049D02*
Y59050D01*
Y61049D01*
X304442Y62049D01*
X305442Y63049D01*
X306441D01*
X262252Y141500D02*
X261753Y141999D01*
X260753D01*
X260253Y141500D01*
Y139500D01*
X260753Y139000D01*
X261753D01*
X262252Y139500D01*
X263252Y139000D02*
X264252D01*
X263752D01*
Y141999D01*
X263252Y141500D01*
X265751Y141000D02*
X266251D01*
Y140500D01*
X265751D01*
Y141000D01*
Y139500D02*
X266251D01*
Y139000D01*
X265751D01*
Y139500D01*
X271249Y139000D02*
X272249D01*
X271749D01*
Y141999D01*
X271249Y141500D01*
X273749D02*
X274249Y141999D01*
X275248D01*
X275748Y141500D01*
Y139500D01*
X275248Y139000D01*
X274249D01*
X273749Y139500D01*
Y141500D01*
X276748Y141000D02*
Y139500D01*
X277248Y139000D01*
X278747D01*
Y141000D01*
X199168Y38000D02*
Y36000D01*
X199835Y36667D01*
X200501Y36000D01*
Y38000D01*
X201167D02*
Y36000D01*
Y37000D01*
X201501Y37333D01*
X202167D01*
X202500Y37000D01*
Y36000D01*
X204167D02*
X203500D01*
X203167Y36334D01*
Y37000D01*
X203500Y37333D01*
X204167D01*
X204500Y37000D01*
Y36667D01*
X203167D01*
X206166Y36000D02*
X205499D01*
X205166Y36334D01*
Y37000D01*
X205499Y37333D01*
X206166D01*
X206499Y37000D01*
Y36667D01*
X205166D01*
X207166Y36000D02*
X207832D01*
X207499D01*
Y38000D01*
X207166D01*
X66503Y41001D02*
Y43999D01*
X68002D01*
X68502Y43500D01*
Y42500D01*
X68002Y42000D01*
X66503D01*
X67503D02*
X68502Y41001D01*
X69502D02*
X70502D01*
X70002D01*
Y43999D01*
X69502Y43500D01*
X72001Y43000D02*
X72501D01*
Y42500D01*
X72001D01*
Y43000D01*
Y41500D02*
X72501D01*
Y41001D01*
X72001D01*
Y41500D01*
X77499Y41001D02*
X78499D01*
X77999D01*
Y43999D01*
X77499Y43500D01*
X79998D02*
X80498Y43999D01*
X81498D01*
X81998Y43500D01*
Y41500D01*
X81498Y41001D01*
X80498D01*
X79998Y41500D01*
Y43500D01*
X82998Y41001D02*
Y43999D01*
Y42000D02*
X84497Y43000D01*
X82998Y42000D02*
X84497Y41001D01*
X301752Y161500D02*
Y158501D01*
X303751D01*
X306251D02*
X305251D01*
X304751Y159000D01*
Y160000D01*
X305251Y160500D01*
X306251D01*
X306751Y160000D01*
Y159500D01*
X304751D01*
X307750Y160500D02*
X308750Y158501D01*
X309750Y160500D01*
X312249Y158501D02*
X311249D01*
X310749Y159000D01*
Y160000D01*
X311249Y160500D01*
X312249D01*
X312749Y160000D01*
Y159500D01*
X310749D01*
X313748Y160500D02*
Y158501D01*
Y159500D01*
X314248Y160000D01*
X314748Y160500D01*
X315248D01*
X76508Y6999D02*
Y4000D01*
X78007D01*
X78507Y4500D01*
Y6499D01*
X78007Y6999D01*
X76508D01*
X79507Y4000D02*
X80506D01*
X80007D01*
Y6000D01*
X79507D01*
X82006Y4000D02*
X83505D01*
X84005Y4500D01*
X83505Y5000D01*
X82506D01*
X82006Y5500D01*
X82506Y6000D01*
X84005D01*
X85005Y3001D02*
Y6000D01*
X86505D01*
X87004Y5500D01*
Y4500D01*
X86505Y4000D01*
X85005D01*
X88004D02*
X89004D01*
X88504D01*
Y6999D01*
X88004D01*
X91003Y6000D02*
X92003D01*
X92503Y5500D01*
Y4000D01*
X91003D01*
X90503Y4500D01*
X91003Y5000D01*
X92503D01*
X93502Y6000D02*
Y4500D01*
X94002Y4000D01*
X95502D01*
Y3500D01*
X95002Y3001D01*
X94502D01*
X95502Y4000D02*
Y6000D01*
X101500Y6499D02*
X101000Y6999D01*
X100000D01*
X99500Y6499D01*
Y4500D01*
X100000Y4000D01*
X101000D01*
X101500Y4500D01*
X102999Y4000D02*
X103999D01*
X104499Y4500D01*
Y5500D01*
X103999Y6000D01*
X102999D01*
X102499Y5500D01*
Y4500D01*
X102999Y4000D01*
X105498D02*
Y6000D01*
X106998D01*
X107498Y5500D01*
Y4000D01*
X108497D02*
Y6000D01*
X109997D01*
X110497Y5500D01*
Y4000D01*
X112996D02*
X111996D01*
X111496Y4500D01*
Y5500D01*
X111996Y6000D01*
X112996D01*
X113496Y5500D01*
Y5000D01*
X111496D01*
X116495Y6000D02*
X114995D01*
X114496Y5500D01*
Y4500D01*
X114995Y4000D01*
X116495D01*
X117994Y6499D02*
Y6000D01*
X117494D01*
X118494D01*
X117994D01*
Y4500D01*
X118494Y4000D01*
X120493D02*
X121493D01*
X121993Y4500D01*
Y5500D01*
X121493Y6000D01*
X120493D01*
X119994Y5500D01*
Y4500D01*
X120493Y4000D01*
X122993Y6000D02*
Y4000D01*
Y5000D01*
X123493Y5500D01*
X123992Y6000D01*
X124492D01*
X169003Y131000D02*
X168503Y131500D01*
X167504D01*
X167004Y131000D01*
Y129000D01*
X167504Y128500D01*
X168503D01*
X169003Y129000D01*
X170503Y128500D02*
X171502D01*
X172002Y129000D01*
Y130000D01*
X171502Y130500D01*
X170503D01*
X170003Y130000D01*
Y129000D01*
X170503Y128500D01*
X173002D02*
X174002D01*
X173502D01*
Y130500D01*
X173002D01*
X175501Y128500D02*
Y130500D01*
X177001D01*
X177500Y130000D01*
Y128500D01*
X183499Y131000D02*
X182999Y131500D01*
X181999D01*
X181499Y131000D01*
Y130500D01*
X181999Y130000D01*
X182999D01*
X183499Y129500D01*
Y129000D01*
X182999Y128500D01*
X181999D01*
X181499Y129000D01*
X184498Y128500D02*
X185498D01*
X184998D01*
Y131500D01*
X184498D01*
X187497Y128500D02*
X188497D01*
X188997Y129000D01*
Y130000D01*
X188497Y130500D01*
X187497D01*
X186997Y130000D01*
Y129000D01*
X187497Y128500D01*
X190496Y131000D02*
Y130500D01*
X189996D01*
X190996D01*
X190496D01*
Y129000D01*
X190996Y128500D01*
X90899Y96199D02*
X90399Y96699D01*
X89400D01*
X88900Y96199D01*
Y94200D01*
X89400Y93700D01*
X90399D01*
X90899Y94200D01*
X91899Y96199D02*
X92399Y96699D01*
X93398D01*
X93898Y96199D01*
Y95699D01*
X93398Y95200D01*
X92899D01*
X93398D01*
X93898Y94700D01*
Y94200D01*
X93398Y93700D01*
X92399D01*
X91899Y94200D01*
X94898Y95699D02*
X95398D01*
Y95200D01*
X94898D01*
Y95699D01*
Y94200D02*
X95398D01*
Y93700D01*
X94898D01*
Y94200D01*
X102396Y93700D02*
X100396D01*
X102396Y95699D01*
Y96199D01*
X101896Y96699D01*
X100896D01*
X100396Y96199D01*
X105395Y93700D02*
X103395D01*
X105395Y95699D01*
Y96199D01*
X104895Y96699D01*
X103895D01*
X103395Y96199D01*
X106394Y92700D02*
Y95699D01*
X107894D01*
X108394Y95200D01*
Y94200D01*
X107894Y93700D01*
X106394D01*
X109893D02*
Y96199D01*
Y95200D01*
X109393D01*
X110393D01*
X109893D01*
Y96199D01*
X110393Y96699D01*
X224253Y36999D02*
X223753Y37499D01*
X222753D01*
X222253Y36999D01*
Y35000D01*
X222753Y34500D01*
X223753D01*
X224253Y35000D01*
X227252Y34500D02*
X225253D01*
X227252Y36500D01*
Y36999D01*
X226752Y37499D01*
X225752D01*
X225253Y36999D01*
X228252Y36500D02*
X228751D01*
Y36000D01*
X228252D01*
Y36500D01*
Y35000D02*
X228751D01*
Y34500D01*
X228252D01*
Y35000D01*
X235749Y34500D02*
X233750D01*
X235749Y36500D01*
Y36999D01*
X235249Y37499D01*
X234250D01*
X233750Y36999D01*
X238748Y34500D02*
X236749D01*
X238748Y36500D01*
Y36999D01*
X238248Y37499D01*
X237249D01*
X236749Y36999D01*
X239748Y33501D02*
Y36500D01*
X241247D01*
X241747Y36000D01*
Y35000D01*
X241247Y34500D01*
X239748D01*
X243247D02*
Y36999D01*
Y36000D01*
X242747D01*
X243746D01*
X243247D01*
Y36999D01*
X243746Y37499D01*
X207503Y126500D02*
Y128500D01*
X208502Y129499D01*
X209502Y128500D01*
Y126500D01*
Y128000D01*
X207503D01*
X210502Y129499D02*
Y127500D01*
X211502Y126500D01*
X212501Y127500D01*
Y129499D01*
X213501Y126500D02*
Y129499D01*
X215000D01*
X215500Y129000D01*
Y128000D01*
X215000Y127500D01*
X213501D01*
X214500D02*
X215500Y126500D01*
X219499Y129499D02*
Y126500D01*
Y128000D01*
X221498D01*
Y129499D01*
Y126500D01*
X224497D02*
X222498D01*
X224497Y128500D01*
Y129000D01*
X223997Y129499D01*
X222998D01*
X222498Y129000D01*
X44503Y60501D02*
Y62500D01*
X45502Y63499D01*
X46502Y62500D01*
Y60501D01*
Y62000D01*
X44503D01*
X47502Y63499D02*
Y61500D01*
X48501Y60501D01*
X49501Y61500D01*
Y63499D01*
X50501Y60501D02*
Y63499D01*
X52000D01*
X52500Y63000D01*
Y62000D01*
X52000Y61500D01*
X50501D01*
X51500D02*
X52500Y60501D01*
X56499Y63499D02*
Y60501D01*
Y62000D01*
X58498D01*
Y63499D01*
Y60501D01*
X59498D02*
X60497D01*
X59998D01*
Y63499D01*
X59498Y63000D01*
X252507Y78000D02*
Y80000D01*
X253507Y80999D01*
X254506Y80000D01*
Y78000D01*
Y79500D01*
X252507D01*
X256006Y80500D02*
Y80000D01*
X255506D01*
X256506D01*
X256006D01*
Y78500D01*
X256506Y78000D01*
X258005D02*
Y80000D01*
X258505D01*
X259005Y79500D01*
Y78000D01*
Y79500D01*
X259505Y80000D01*
X260004Y79500D01*
Y78000D01*
X262504D02*
X261504D01*
X261004Y78500D01*
Y79500D01*
X261504Y80000D01*
X262504D01*
X263003Y79500D01*
Y79000D01*
X261004D01*
X265003Y77001D02*
X265503D01*
X266003Y77500D01*
Y80000D01*
X264503D01*
X264003Y79500D01*
Y78500D01*
X264503Y78000D01*
X266003D01*
X267502Y80000D02*
X268502D01*
X269002Y79500D01*
Y78000D01*
X267502D01*
X267002Y78500D01*
X267502Y79000D01*
X269002D01*
X270001Y80500D02*
X270501Y80999D01*
X271501D01*
X272001Y80500D01*
Y80000D01*
X271501Y79500D01*
X271001D01*
X271501D01*
X272001Y79000D01*
Y78500D01*
X271501Y78000D01*
X270501D01*
X270001Y78500D01*
X275000Y78000D02*
X273000D01*
X275000Y80000D01*
Y80500D01*
X274500Y80999D01*
X273500D01*
X273000Y80500D01*
X275999D02*
X276499Y80999D01*
X277499D01*
X277999Y80500D01*
Y80000D01*
X277499Y79500D01*
X277999Y79000D01*
Y78500D01*
X277499Y78000D01*
X276499D01*
X275999Y78500D01*
Y79000D01*
X276499Y79500D01*
X275999Y80000D01*
Y80500D01*
X276499Y79500D02*
X277499D01*
X278998Y78000D02*
Y80999D01*
X280498D01*
X280998Y80500D01*
Y79500D01*
X280498Y79000D01*
X278998D01*
X281997Y79500D02*
X283997D01*
X284996Y78000D02*
Y80999D01*
X285996Y80000D01*
X286996Y80999D01*
Y78000D01*
X288495Y80000D02*
X289495D01*
X289995Y79500D01*
Y78000D01*
X288495D01*
X287996Y78500D01*
X288495Y79000D01*
X289995D01*
X290995Y78000D02*
X291994D01*
X291494D01*
Y80000D01*
X290995D01*
X293494Y78000D02*
Y80000D01*
X294993D01*
X295493Y79500D01*
Y78000D01*
X293503Y129499D02*
X295503D01*
Y129000D01*
X293503Y127000D01*
Y126500D01*
X296502Y129000D02*
X297002Y129499D01*
X298002D01*
X298502Y129000D01*
Y128500D01*
X298002Y128000D01*
X298502Y127500D01*
Y127000D01*
X298002Y126500D01*
X297002D01*
X296502Y127000D01*
Y127500D01*
X297002Y128000D01*
X296502Y128500D01*
Y129000D01*
X297002Y128000D02*
X298002D01*
X299501Y129000D02*
X300001Y129499D01*
X301001D01*
X301501Y129000D01*
Y127000D01*
X301001Y126500D01*
X300001D01*
X299501Y127000D01*
Y129000D01*
X304500Y129499D02*
X302500D01*
Y128000D01*
X303500Y128500D01*
X304000D01*
X304500Y128000D01*
Y127000D01*
X304000Y126500D01*
X303000D01*
X302500Y127000D01*
X308498Y129499D02*
Y127500D01*
X309498Y126500D01*
X310498Y127500D01*
Y129499D01*
X311497Y126500D02*
Y129499D01*
X312997D01*
X313497Y129000D01*
Y128000D01*
X312997Y127500D01*
X311497D01*
X312497D02*
X313497Y126500D01*
M02*
