G04*
G04 #@! TF.GenerationSoftware,Altium Limited,Altium Designer,23.10.1 (27)*
G04*
G04 Layer_Physical_Order=2*
G04 Layer_Color=16711680*
%FSLAX25Y25*%
%MOIN*%
G70*
G04*
G04 #@! TF.SameCoordinates,5FF5A223-D15A-4C9D-8392-CC208A2D619A*
G04*
G04*
G04 #@! TF.FilePolarity,Positive*
G04*
G01*
G75*
%ADD16C,0.07284*%
%ADD17R,0.07284X0.07284*%
%ADD18C,0.04921*%
%ADD19R,0.04921X0.04921*%
%ADD23C,0.09016*%
%ADD24C,0.06165*%
%ADD25R,0.06165X0.06165*%
%ADD27C,0.04724*%
%ADD28R,0.04724X0.04724*%
%ADD31C,0.05000*%
%ADD32C,0.05906*%
G04:AMPARAMS|DCode=33|XSize=59.06mil|YSize=59.06mil|CornerRadius=14.76mil|HoleSize=0mil|Usage=FLASHONLY|Rotation=180.000|XOffset=0mil|YOffset=0mil|HoleType=Round|Shape=RoundedRectangle|*
%AMROUNDEDRECTD33*
21,1,0.05906,0.02953,0,0,180.0*
21,1,0.02953,0.05906,0,0,180.0*
1,1,0.02953,-0.01476,0.01476*
1,1,0.02953,0.01476,0.01476*
1,1,0.02953,0.01476,-0.01476*
1,1,0.02953,-0.01476,-0.01476*
%
%ADD33ROUNDEDRECTD33*%
%ADD34C,0.08500*%
%ADD35C,0.05512*%
%ADD36R,0.05512X0.05512*%
%ADD37R,0.05906X0.05906*%
%ADD38C,0.06693*%
%ADD39R,0.06693X0.06693*%
D16*
X69819Y90315D02*
D03*
Y100157D02*
D03*
Y110000D02*
D03*
Y119843D02*
D03*
D17*
Y129685D02*
D03*
D18*
X47815Y30500D02*
D03*
D19*
X87185D02*
D03*
D23*
X444000Y114500D02*
D03*
X497100Y26500D02*
D03*
X390900D02*
D03*
D24*
X345300Y95200D02*
D03*
D25*
Y45200D02*
D03*
D27*
X150622Y26500D02*
D03*
X142748D02*
D03*
X134874D02*
D03*
X127000D02*
D03*
X119126D02*
D03*
X111252D02*
D03*
X214079Y29500D02*
D03*
X91079Y84000D02*
D03*
D28*
X103378Y26500D02*
D03*
X223921Y29500D02*
D03*
X100921Y84000D02*
D03*
D31*
X40500Y131000D02*
X55000Y145500D01*
X120571D01*
X40500Y116000D02*
Y131000D01*
X22500Y81500D02*
Y128500D01*
X50000Y156000D01*
X153000D01*
X150327Y84173D02*
Y106673D01*
X130595Y126406D02*
X150327Y106673D01*
X130595Y126406D02*
Y135477D01*
X69819Y119843D02*
X113657D01*
X140327Y84173D02*
Y93173D01*
Y84173D02*
X140500Y84000D01*
X133047Y80913D02*
Y83000D01*
X137413Y76547D02*
X175564D01*
X130500Y84000D02*
X131500Y83000D01*
X133047D01*
X113657Y119843D02*
X140327Y93173D01*
X150327Y84173D02*
X150500Y84000D01*
X120571Y145500D02*
X130595Y135477D01*
X40500Y116000D02*
X46500Y110000D01*
X69819D01*
Y119843D02*
X70256Y120279D01*
X22500Y81500D02*
X28547Y75453D01*
X95851D01*
X71547Y61000D02*
Y66453D01*
X120500Y53547D02*
Y54000D01*
X69000Y61000D02*
X71547D01*
X92952Y68453D02*
X100405Y61000D01*
X69000Y60460D02*
Y61000D01*
X71547Y66453D02*
X73913D01*
X95851Y75453D02*
X101757Y69547D01*
X75913Y68453D02*
X92952D01*
X177953Y56547D02*
X180500Y54000D01*
X73913Y66453D02*
X75913Y68453D01*
X133047Y80913D02*
X137413Y76547D01*
X175564D02*
X190658Y61453D01*
X101757Y69547D02*
X169858D01*
X177953Y61453D01*
X169453Y115047D02*
X172000Y112500D01*
X169453Y115047D02*
Y139547D01*
X153000Y156000D02*
X169453Y139547D01*
X335800Y95700D02*
X336077Y95423D01*
X345077D02*
X345300Y95200D01*
X336077Y95423D02*
X345077D01*
X287547Y48633D02*
X291048Y52134D01*
X285000Y44900D02*
Y44926D01*
X287547Y47473D02*
Y48633D01*
X292234Y52134D02*
X335800Y95700D01*
X291048Y52134D02*
X292234D01*
X285000Y44926D02*
X287547Y47473D01*
X113500Y61000D02*
X120500Y54000D01*
X100405Y61000D02*
X113500D01*
X177953Y50813D02*
Y54000D01*
X103378Y26500D02*
X104252Y27374D01*
Y31425D01*
X113327Y40500D01*
X167640D01*
X177953Y50813D01*
Y54000D02*
X180500D01*
X182000Y112500D02*
X196272Y98228D01*
X235452D01*
X237381Y100157D01*
X270000D01*
X309699D02*
X310218Y100676D01*
X324000Y103086D02*
Y150500D01*
X310218Y100676D02*
X310542D01*
X311000Y100218D01*
X311458Y100676D01*
X312521D01*
X313040Y100157D01*
X321071D01*
X324000Y103086D01*
X270000Y100157D02*
X309699D01*
X232577Y15638D02*
X264953Y48013D01*
X229638Y15638D02*
X232577D01*
X177439Y16500D02*
X220601D01*
X226738Y22638D02*
X229678D01*
X223500Y9500D02*
X229638Y15638D01*
X180339Y9500D02*
X223500D01*
X264953Y48013D02*
Y59987D01*
X229678Y22638D02*
X257953Y50913D01*
X220601Y16500D02*
X226738Y22638D01*
X257953Y50913D02*
Y57087D01*
X253587Y61453D02*
X257953Y57087D01*
X190658Y61453D02*
X253587D01*
X256487Y68453D02*
X264953Y59987D01*
X161614Y8547D02*
X179386D01*
X120000Y21770D02*
X132270Y9500D01*
X135169Y16500D02*
X163561D01*
X128012Y23658D02*
X135169Y16500D01*
X167413Y22547D02*
X173587D01*
X180500Y29755D02*
Y43460D01*
X179386Y8547D02*
X180339Y9500D01*
X160661D02*
X161614Y8547D01*
X173587Y22547D02*
X177953Y26913D01*
X176487Y15547D02*
X177439Y16500D01*
X163561D02*
X164514Y15547D01*
X132270Y9500D02*
X160661D01*
X177953Y26913D02*
Y27208D01*
X156460Y33500D02*
X167413Y22547D01*
X164514Y15547D02*
X176487D01*
X177953Y27208D02*
X180500Y29755D01*
X127000Y26500D02*
X128012Y25488D01*
Y23658D02*
Y25488D01*
X200500Y52921D02*
Y54000D01*
Y52921D02*
X223921Y29500D01*
X190500Y53460D02*
Y54000D01*
X180500Y43460D02*
X190500Y53460D01*
X116226Y33500D02*
X156460D01*
X112126Y29399D02*
X116226Y33500D01*
X112126Y27374D02*
Y29399D01*
X111252Y26500D02*
X112126Y27374D01*
X120000Y21770D02*
Y26500D01*
X119126D02*
X120000D01*
X218336Y68453D02*
X256487D01*
X207953Y78836D02*
X218336Y68453D01*
X207953Y78836D02*
Y81453D01*
X210500Y84000D01*
X177953Y56547D02*
Y61453D01*
X190500Y29460D02*
Y30000D01*
X180500Y83460D02*
Y84000D01*
X160000Y53500D02*
X160500Y54000D01*
D32*
X150500Y142000D02*
D03*
X285000Y44681D02*
D03*
X170500Y30000D02*
D03*
X180500D02*
D03*
X182000Y112500D02*
D03*
X172000D02*
D03*
X211500Y105681D02*
D03*
X221500D02*
D03*
X69000Y61000D02*
D03*
X79000D02*
D03*
X324000Y150500D02*
D03*
X250500Y84000D02*
D03*
X240500D02*
D03*
X230500D02*
D03*
X220500D02*
D03*
X210500D02*
D03*
X200500D02*
D03*
X190500D02*
D03*
X180500D02*
D03*
X170500D02*
D03*
X160500D02*
D03*
X150500D02*
D03*
X140500D02*
D03*
X130500D02*
D03*
X120500D02*
D03*
X250500Y54000D02*
D03*
X240500D02*
D03*
X230500D02*
D03*
X220500D02*
D03*
X210500D02*
D03*
X200500D02*
D03*
X190500D02*
D03*
X180500D02*
D03*
X170500D02*
D03*
X160500D02*
D03*
X150500D02*
D03*
X140500D02*
D03*
X130500D02*
D03*
D33*
X140500Y142000D02*
D03*
X295000Y44681D02*
D03*
X190500Y30000D02*
D03*
X162000Y112500D02*
D03*
X231500Y105681D02*
D03*
X89000Y61000D02*
D03*
X334000Y150500D02*
D03*
D34*
X565000Y16000D02*
D03*
X564500Y160500D02*
D03*
X9000Y14500D02*
D03*
Y160000D02*
D03*
D35*
X270000Y100157D02*
D03*
D36*
Y119843D02*
D03*
D37*
X120500Y54000D02*
D03*
D38*
X311000Y111000D02*
D03*
Y101000D02*
D03*
D39*
Y91000D02*
D03*
M02*
